General
Complete name                    : Tekken.2010.avi
Format                           : AVI
File size                        : 1.37 GiB
Duration                         : 1h 27mn
Overall bit rate                 : 2 239 Kbps

Video

Format                           : MPEG-4 Visual
Codec ID/Hint                    : XviD
Duration                         : 1h 27mn
Bit rate                         : 1 780 Kbps
Width                            : 720 pixels
Height                           : 574 pixels
Display aspect ratio             : 4:3
Stream size                      : 1.09 GiB (80%)
Writing library                  : XviD 1.1.2 (UTC 2006-11-01)

Audio

Format                           : AC-3
Duration                         : 1h 27mn
Bit rate                         : 448 Kbps
Channel(s)                       : 6 channels
Channel positions                : Front: L C R, Side: L R, LFE
Sampling rate                    : 48.0 KHz
Stream size                      : 280 MiB (20%)


Text<>GM4Y---THX :D